Coordinates
version=1
nRows=29
nColumns=24
inDegrees=yes

Units are S.I. units (second, meters, Newtons, ...)
Angles are in degrees.

endheader
time	pelvis_tilt	pelvis_list	pelvis_rotation	pelvis_tx	pelvis_ty	pelvis_tz	hip_flexion_r	hip_adduction_r	hip_rotation_r	knee_angle_r	ankle_angle_r	subtalar_angle_r	mtp_angle_r	hip_flexion_l	hip_adduction_l	hip_rotation_l	knee_angle_l	ankle_angle_l	subtalar_angle_l	mtp_angle_l	lumbar_extension	lumbar_bending	lumbar_rotation
      5.52000000	     -2.77508743	     -7.20669426	    -13.76667026	     -0.82446250	      0.67828296	      0.23050437	    -14.88426564	     12.83402590	     14.73528887	    -19.03126248	     22.43411206	      7.46878332	      0.00000000	     22.88165578	     -7.15770030	      8.47857651	      4.44485718	      2.75200658	    -25.23555710	      0.00000000	    -15.08928461	      5.92049658	     13.38668876
      5.53000000	     -2.84938778	     -6.29562631	    -14.02953223	     -0.80823520	      0.67726507	      0.23060636	    -13.46118270	     11.46975272	     11.83662372	    -23.25506372	     21.56789336	     10.71383309	      0.00000000	     23.47614309	     -5.68559467	      9.62034082	      1.97603441	      1.97898589	    -26.77049596	      0.00000000	    -14.46402901	      5.00458483	     13.11394755
      5.54000000	     -2.36334708	     -4.91742738	    -14.20700170	     -0.79176279	      0.67696466	      0.23061746	    -12.30997592	      9.37156298	      9.27695850	    -27.69775243	     20.05066986	     13.53140767	      0.00000000	     23.66144866	     -3.51059079	     10.08676578	     -0.87081270	      1.27839924	    -27.62567809	      0.00000000	    -14.36102268	      3.34877374	     12.57029634
      5.55000000	     -1.87717267	     -3.40426781	    -14.30176933	     -0.77551897	      0.67670064	      0.23040634	    -10.79767295	      7.05468890	      6.98393318	    -32.49310971	     17.71944963	     15.91903542	      0.00000000	     24.04626530	     -1.13522243	     10.50101796	     -4.03915462	      0.45767054	    -28.15432809	      0.00000000	    -14.30122406	      1.56929788	     11.93872790
      5.56000000	     -1.33651078	     -1.77847096	    -14.33920161	     -0.75950828	      0.67652541	      0.23009802	     -9.07151379	      4.57778273	      5.17036569	    -37.44769079	     14.68999478	     17.69253849	      0.00000000	     24.52921780	      1.38815977	     10.53439323	     -7.40263262	     -0.29228902	    -28.17498427	      0.00000000	    -14.35086644	     -0.34823737	     11.23722056
      5.57000000	     -1.17360317	     -0.18726236	    -14.44589603	     -0.74394809	      0.67594500	      0.22980813	     -6.64805430	      2.23038423	      3.93731890	    -42.56317593	     11.14952792	     18.88068389	      0.00000000	     25.56325721	      3.69841979	      9.73227326	    -10.94195494	     -0.44465559	    -27.12378024	      0.00000000	    -14.02182204	     -2.09277334	     10.73424220
      5.58000000	     -0.76267780	      1.30976112	    -14.55608108	     -0.72884396	      0.67567858	      0.22987300	     -4.36410681	      0.07538998	      3.35344250	    -47.49251562	      7.47384748	     19.04198138	      0.00000000	     26.30015246	      5.79059337	      8.21623069	    -14.34147459	     -0.04939875	    -25.29907305	      0.00000000	    -14.12543752	     -3.90075853	     10.21343487
      5.59000000	     -0.39584368	      2.65631548	    -14.74369359	     -0.71416614	      0.67546179	      0.23023564	     -1.89113854	     -1.74869055	      3.28988014	    -52.22937925	      4.04684872	     18.27159313	      0.00000000	     26.81810251	      7.52031402	      6.60858612	    -17.26124615	      0.45864130	    -23.60127439	      0.00000000	    -14.25640103	     -5.57407762	      9.90467025
      5.60000000	     -0.22223520	      3.74302596	    -14.88830280	     -0.69997834	      0.67527910	      0.23065417	      0.85864799	     -3.04450999	      3.57325836	    -56.67201072	      1.11535382	     16.65071988	      0.00000000	     27.22440710	      8.81824021	      4.87521318	    -19.65525905	      1.09485840	    -22.10764635	      0.00000000	    -14.28648303	     -6.85924723	      9.57417419
      5.61000000	     -0.05307540	      4.79320060	    -15.09672904	     -0.68604712	      0.67534460	      0.23116901	      3.69826112	     -4.13330683	      4.16152552	    -60.80231574	     -0.81708912	     14.41757794	      0.00000000	     27.14211325	      9.99613544	      3.44680869	    -21.20248232	      1.79846143	    -21.15268380	      0.00000000	    -14.30381031	     -8.09315503	      9.28577805
      5.62000000	      0.29550806	      5.68993661	    -15.28274683	     -0.67230246	      0.67615019	      0.23164710	      6.29097438	     -4.95600629	      4.86001160	    -64.41963480	     -1.88017899	     11.51687651	      0.00000000	     26.27138547	     11.12031333	      2.61147898	    -21.80677457	      2.41384622	    -20.87233193	      0.00000000	    -14.57975855	     -9.16124439	      9.04497600
      5.63000000	      0.34735182	      6.58137610	    -15.52482134	     -0.65866204	      0.67708462	      0.23219818	      9.20971372	     -5.52149031	      5.84691913	    -67.60495294	     -1.96947254	      8.61757552	      0.00000000	     25.28322372	     12.13923404	      1.90386304	    -21.69724709	      3.34184046	    -20.49098081	      0.00000000	    -14.38218930	    -10.09174691	      8.81386908
      5.64000000	      0.58533640	      7.21630829	    -15.55295983	     -0.64516471	      0.67893706	      0.23248350	     11.71930328	     -5.81442115	      6.61613292	    -70.11556638	     -1.55126092	      5.52729900	      0.00000000	     23.59317919	     13.12884708	      1.90261849	    -20.89581749	      4.03724119	    -20.55719257	      0.00000000	    -14.55815577	    -10.69844910	      8.29491407
      5.65000000	      0.73625852	      7.64839774	    -15.56605891	     -0.63163923	      0.68131968	      0.23282190	     14.13028248	     -5.79506275	      7.39395863	    -71.96986173	     -0.70023915	      2.58009897	      0.00000000	     21.52832479	     13.95468836	      2.52351300	    -19.48477515	      4.58433431	    -20.90282446	      0.00000000	    -14.60018287	    -11.01542954	      7.89200263
      5.66000000	      0.94456068	      7.78425123	    -15.39010522	     -0.61801344	      0.68436948	      0.23299498	     16.17833297	     -5.51552087	      7.90416297	    -73.10945978	      0.33336577	     -0.07016715	      0.00000000	     18.96033280	     14.61477983	      4.03216758	    -17.58231831	      4.57130044	    -21.96005162	      0.00000000	    -14.79067557	    -10.94085151	      7.27648573
      5.67000000	      0.92719415	      7.59126028	    -15.11261105	     -0.60462814	      0.68757137	      0.23336085	     18.23985310	     -4.79044579	      8.21285687	    -73.63804769	      1.16883479	     -2.68186488	      0.00000000	     16.49108077	     14.79727274	      5.58486194	    -15.66750757	      4.73034015	    -22.55471305	      0.00000000	    -14.83949971	    -10.45597130	      6.67229669
      5.68000000	      1.14995865	      7.11850109	    -14.64783273	     -0.59102935	      0.69129537	      0.23347711	     19.71186550	     -3.98598747	      8.22393206	    -73.52488595	      2.30681872	     -4.36812357	      0.00000000	     13.36576621	     14.80895678	      8.50582789	    -13.32437336	      3.68728887	    -24.78920921	      0.00000000	    -15.27471088	     -9.66090909	      5.92481579
      5.69000000	      1.04602663	      6.40562275	    -14.06761779	     -0.57767153	      0.69464577	      0.23377684	     21.35368032	     -2.85641121	      8.00474203	    -72.92018359	      3.11176626	     -6.00169135	      0.00000000	     10.68474826	     14.31724547	     11.06213615	    -11.23690337	      2.96139280	    -26.40958538	      0.00000000	    -15.41515518	     -8.54986848	      5.24353852
      5.70000000	      0.83946001	      5.54205735	    -13.39487522	     -0.56445554	      0.69769133	      0.23415149	     22.93920042	     -1.60903491	      7.60665706	    -71.85613088	      3.77940182	     -7.32472835	      0.00000000	      8.18387842	     13.51998728	     13.53718932	     -9.27554105	      2.21376745	    -27.98099435	      0.00000000	    -15.52734513	     -7.27596732	      4.54035831
      5.71000000	      0.52743069	      4.65206748	    -12.58598915	     -0.55132389	      0.70025144	      0.23456060	     24.51473265	     -0.41731107	      7.00023316	    -70.39058587	      4.31480410	     -8.46397550	      0.00000000	      5.93142234	     12.55807624	     15.79243501	     -7.47289642	      1.63994460	    -29.17953040	      0.00000000	    -15.54833303	     -5.98906681	      3.83888178
      5.72000000	      0.18833909	      3.75163065	    -11.72295150	     -0.53833488	      0.70232243	      0.23500101	     25.99789752	      0.72788190	      6.35634083	    -68.52769889	      4.79038143	     -9.39492095	      0.00000000	      3.86246557	     11.49374548	     17.77872174	     -5.80767650	      1.12974502	    -30.28158738	      0.00000000	    -15.61903151	     -4.71845507	      3.07494203
      5.73000000	     -0.16080844	      2.94073649	    -10.77022051	     -0.52538694	      0.70382699	      0.23542339	     27.40672060	      1.66737907	      5.62559533	    -66.32598481	      5.14826990	    -10.21413147	      0.00000000	      1.96525855	     10.45931189	     19.46749733	     -4.26853367	      0.77759265	    -31.10190843	      0.00000000	    -15.67196114	     -3.57754230	      2.27413310
      5.74000000	     -0.62503340	      2.33110633	     -9.73194692	     -0.51253651	      0.70456771	      0.23583293	     28.88818195	      2.32475211	      4.88352910	    -63.82712465	      5.38793593	    -11.05395846	      0.00000000	      0.43981101	      9.59175489	     20.76637997	     -2.99801682	      0.93994686	    -31.19094366	      0.00000000	    -15.56735291	     -2.68117104	      1.43838260
      5.75000000	     -0.74100383	      1.73842582	     -8.66250069	     -0.49959266	      0.70515608	      0.23622479	     29.82940028	      2.79818939	      4.14013396	    -60.96103030	      5.67393853	    -11.60687332	      0.00000000	     -1.45743955	      8.74696001	     22.22632971	     -1.63972558	      0.61666736	    -32.08593773	      0.00000000	    -15.88475666	     -1.89036972	      0.53753382
      5.76000000	     -1.05755500	      1.43429803	     -7.54357229	     -0.48674863	      0.70485109	      0.23662508	     30.94973326	      2.93548263	      3.46080880	    -57.85437316	      5.92294900	    -12.13314372	      0.00000000	     -2.87663447	      8.17788384	     23.44691298	     -0.61812940	      0.90272394	    -32.25058495	      0.00000000	    -15.91063993	     -1.43078349	     -0.34132505
      5.77000000	     -1.03864510	      1.13642465	     -6.45711227	     -0.47376361	      0.70452226	      0.23709407	     31.47797974	      2.98326868	      2.88638600	    -54.31879943	      6.27291216	    -12.35101740	      0.00000000	     -4.62563322	      7.62580950	     24.77756184	      0.37439092	      0.76634677	    -33.13110153	      0.00000000	    -16.31642886	     -1.04647957	     -1.18817329
      5.78000000	     -1.26235156	      1.09422716	     -5.30185067	     -0.46079398	      0.70342061	      0.23745065	     32.17237124	      2.69314700	      2.31907988	    -50.52411148	      6.69905218	    -12.28654930	      0.00000000	     -5.87604848	      7.35624310	     25.90654556	      0.99109450	      1.22466402	    -33.34294028	      0.00000000	    -16.36133752	     -0.91784833	     -2.07297650
      5.79000000	     -1.26006787	      1.10196962	     -4.17819134	     -0.44783534	      0.70229212	      0.23789972	     32.39257997	      2.32858009	      1.92695258	    -46.32460694	      7.21978188	    -11.86998405	      0.00000000	     -7.29691079	      7.13253334	     27.15245850	      1.48166377	      1.49931881	    -33.85862177	      0.00000000	    -16.70657758	     -0.88789199	     -3.02662594
      5.80000000	     -1.24913704	      1.17407796	     -3.13778463	     -0.43470522	      0.70088477	      0.23839665	     32.37274676	      1.89266831	      1.67160403	    -41.75424565	      7.85499936	    -11.07246339	      0.00000000	     -8.66473733	      6.98032248	     28.34209498	      1.82682555	      1.82881209	    -34.45140046	      0.00000000	    -16.98064137	     -0.92838952	     -3.82382839
